<?xml version="1.0" encoding="UTF-8" standalone="no"?>
<svg
   xmlns:dc="http://purl.org/dc/elements/1.1/"
   xmlns:cc="http://creativecommons.org/ns#"
   xmlns:rdf="http://www.w3.org/1999/02/22-rdf-syntax-ns#"
   xmlns:svg="http://www.w3.org/2000/svg"
   xmlns="http://www.w3.org/2000/svg"
   xmlns:sodipodi="http://sodipodi.sourceforge.net/DTD/sodipodi-0.dtd"
   xmlns:inkscape="http://www.inkscape.org/namespaces/inkscape"
   inkscape:version="0.92.5 (0.92.5+68)"
   sodipodi:docname="person-vulnerable.svg"
   width="135mm"
   height="200mm"
   viewBox="0 0 135 200"
   version="1.1"
   id="svg8">
  <sodipodi:namedview
     inkscape:current-layer="svg8"
     inkscape:window-maximized="1"
     inkscape:window-y="0"
     inkscape:window-x="0"
     inkscape:cy="315.33186"
     inkscape:cx="126.35556"
     inkscape:zoom="0.65806405"
     showgrid="false"
     id="namedview841"
     inkscape:window-height="843"
     inkscape:window-width="1600"
     inkscape:pageshadow="2"
     inkscape:pageopacity="0"
     guidetolerance="10"
     gridtolerance="10"
     objecttolerance="10"
     borderopacity="1"
     bordercolor="#666666"
     pagecolor="#ffffff"
     inkscape:document-rotation="0"
     inkscape:snap-global="true"
     inkscape:snap-bbox="true"
     inkscape:snap-bbox-midpoints="true" />
  <defs
     id="defs2" />
  <metadata
     id="metadata5">
    <rdf:RDF>
      <cc:Work
         rdf:about="">
        <dc:format>image/svg+xml</dc:format>
        <dc:type
           rdf:resource="http://purl.org/dc/dcmitype/StillImage" />
        <dc:title></dc:title>
      </cc:Work>
    </rdf:RDF>
  </metadata>
  <path
     inkscape:connector-curvature="0"
     d="M 67.265806,15.583984 A 20.676282,20.676282 0 0 0 46.589703,36.260089 20.676282,20.676282 0 0 0 57.919842,54.70361 v 1.387201 H 42.33544 c -5.419296,0 -9.782333,4.363036 -9.782333,9.782334 v 40.078395 c 0,5.41929 4.363037,9.78234 9.782333,9.78234 h 6.48111 v 56.45921 c 0,4.30738 3.467828,7.77477 7.775212,7.77477 h 22.54733 c 4.307386,0 7.775214,-3.46739 7.775214,-7.77477 v -56.45921 h 6.48111 c 5.4193,0 9.781894,-4.36305 9.781894,-9.78234 V 65.873145 c 0,-5.419298 -4.362594,-9.782334 -9.781894,-9.782334 H 77.811012 V 54.045305 A 20.676282,20.676282 0 0 0 87.942353,36.260089 20.676282,20.676282 0 0 0 67.265806,15.583984 Z"
     style="fill:#ffb407;fill-opacity:0.99607801;fill-rule:evenodd;stroke-width:3.90236211"
     id="path951-0" />
</svg>
