<?xml version="1.0" encoding="UTF-8" standalone="no"?>
<svg
   xmlns:dc="http://purl.org/dc/elements/1.1/"
   xmlns:cc="http://creativecommons.org/ns#"
   xmlns:rdf="http://www.w3.org/1999/02/22-rdf-syntax-ns#"
   xmlns:svg="http://www.w3.org/2000/svg"
   xmlns="http://www.w3.org/2000/svg"
   id="svg8"
   version="1.1"
   viewBox="0 0 180 200"
   height="200mm"
   width="180mm">
  <defs
     id="defs2" />
  <metadata
     id="metadata5">
    <rdf:RDF>
      <cc:Work
         rdf:about="">
        <dc:format>image/svg+xml</dc:format>
        <dc:type
           rdf:resource="http://purl.org/dc/dcmitype/StillImage" />
        <dc:title></dc:title>
      </cc:Work>
    </rdf:RDF>
  </metadata>
  <path
     id="path2445"
     style="fill:#7ac100;fill-opacity:0.996078;fill-rule:evenodd;stroke-width:2.77462"
     d="m 90.057186,4.1182901 c 6.651239,-0.1050937 11.530724,7.3256509 17.924664,10.5397699 6.39394,3.214118 14.44004,-1.611448 19.88166,4.471888 5.44162,6.083337 5.10192,19.513583 9.04936,27.934714 3.94744,8.421131 12.27923,12.095316 14.31624,21.927829 2.03701,9.832514 -3.33684,19.902085 -3.35462,30.319616 -0.0178,10.417523 5.50899,21.224723 3.35462,31.313863 -2.15437,10.08913 -10.93839,13.74678 -14.87419,22.21821 -3.93581,8.47141 -2.9866,21.44688 -8.49141,27.64434 -5.50479,6.19744 -14.4895,0.9149 -20.89201,4.22713 -6.40249,3.31222 -10.223984,9.86497 -16.914318,9.89393 -6.690334,0.029 -11.65406,-7.52414 -18.090894,-10.71879 -6.436835,-3.19465 -14.047906,2.79417 -19.715432,-3.40228 -5.667527,-6.19646 -5.490404,-21.97748 -9.534374,-30.34823 -4.04397,-8.37076 -11.816382,-10.00069 -13.831221,-19.51431 -2.014837,-9.51362 3.928835,-20.00629 3.942978,-30.47873 C 32.842378,89.674834 26.816781,79.185359 28.885262,68.992485 30.953742,58.799612 39.983209,55.009502 43.90914,46.52397 47.835073,38.038436 46.832474,25.285787 52.250858,19.129946 57.669242,12.974103 66.428435,18.074059 72.827192,14.795088 79.225948,11.516117 83.405945,4.2233893 90.057186,4.1182901 Z" />
  <path
     d="M 89.4906,15.020156 A 20.685002,20.685002 0 0 0 68.805778,35.70498 20.685002,20.685002 0 0 0 80.140695,54.156279 v 1.387786 H 64.549721 c -5.421582,0 -9.786459,4.364876 -9.786459,9.78646 v 40.095285 c 0,5.42158 4.364877,9.78646 9.786459,9.78646 h 6.483843 v 56.48303 c 0,4.3092 3.46929,7.77805 7.778492,7.77805 h 22.556834 c 4.30921,0 7.7785,-3.46885 7.7785,-7.77805 v -56.48303 h 6.48384 c 5.42158,0 9.78601,-4.36488 9.78601,-9.78646 V 65.330525 c 0,-5.421584 -4.36443,-9.78646 -9.78601,-9.78646 H 100.04026 V 53.497697 A 20.685002,20.685002 0 0 0 110.17587,35.70498 20.685002,20.685002 0 0 0 89.4906,15.020156 Z"
     style="fill:#af2b00;fill-opacity:0.99607801;fill-rule:evenodd;stroke-width:3.90400791"
     id="path951" />
</svg>
