<?xml version="1.0" encoding="UTF-8" standalone="no"?>
<svg
   xmlns:dc="http://purl.org/dc/elements/1.1/"
   xmlns:cc="http://creativecommons.org/ns#"
   xmlns:rdf="http://www.w3.org/1999/02/22-rdf-syntax-ns#"
   xmlns:svg="http://www.w3.org/2000/svg"
   xmlns="http://www.w3.org/2000/svg"
   xmlns:sodipodi="http://sodipodi.sourceforge.net/DTD/sodipodi-0.dtd"
   xmlns:inkscape="http://www.inkscape.org/namespaces/inkscape"
   inkscape:version="1.0 (1.0+r73+1)"
   sodipodi:docname="sickness.svg"
   width="180mm"
   height="200mm"
   viewBox="0 0 180 200"
   version="1.1"
   id="svg8">
  <sodipodi:namedview
     inkscape:current-layer="svg8"
     inkscape:window-maximized="1"
     inkscape:window-y="0"
     inkscape:window-x="0"
     inkscape:cy="381.35832"
     inkscape:cx="391.17837"
     inkscape:zoom="0.9306431"
     showgrid="false"
     id="namedview841"
     inkscape:window-height="1018"
     inkscape:window-width="1680"
     inkscape:pageshadow="2"
     inkscape:pageopacity="0"
     guidetolerance="10"
     gridtolerance="10"
     objecttolerance="10"
     borderopacity="1"
     bordercolor="#666666"
     pagecolor="#ffffff"
     inkscape:document-rotation="0"
     inkscape:snap-global="true"
     inkscape:snap-bbox="true"
     inkscape:snap-bbox-midpoints="true" />
  <defs
     id="defs2" />
  <metadata
     id="metadata5">
    <rdf:RDF>
      <cc:Work
         rdf:about="">
        <dc:format>image/svg+xml</dc:format>
        <dc:type
           rdf:resource="http://purl.org/dc/dcmitype/StillImage" />
        <dc:title></dc:title>
      </cc:Work>
    </rdf:RDF>
  </metadata>
  <path
     inkscape:transform-center-x="-2.5997244e-06"
     sodipodi:nodetypes="zzzzzzzzzzzzzzzzzzzzz"
     d="m 90.045493,3.6915264 c 9.003043,-0.1016093 15.607857,10.9831506 24.262617,14.0907046 8.65476,3.107553 19.54588,-1.55802 26.91159,4.323621 7.36573,5.881642 6.90591,18.866603 12.24912,27.008529 5.3432,8.141925 16.62102,11.694291 19.3783,21.200804 2.75726,9.506513 -4.51672,19.242224 -4.5408,29.314356 -0.0241,10.072129 7.45692,20.521009 4.5408,30.275639 -2.91613,9.75463 -14.80609,13.29101 -20.13354,21.48156 -5.32746,8.19054 -4.04264,20.7358 -11.49388,26.72778 -7.45121,5.99197 -19.61281,0.88457 -28.27917,4.08698 -8.66636,3.2024 -13.839081,14.29934 -22.895041,14.32734 -9.05596,0.028 -15.774803,-12.03612 -24.48763,-15.12485 -8.712825,-3.08873 -19.015084,2.70153 -26.686584,-3.28948 C 31.199776,172.1235 31.439528,156.86571 25.965657,148.77249 20.491785,140.67927 9.9711355,139.10338 7.243873,129.90518 4.5166105,120.70699 12.5619,110.56221 12.581044,100.43699 12.600188,90.311798 4.4440028,80.170105 7.2438745,70.315179 10.043746,60.460254 22.265929,56.795807 27.580025,48.591615 32.894122,40.387422 31.537016,28.057592 38.871279,22.10585 46.205542,16.154106 58.061887,21.084971 66.72317,17.914716 75.384454,14.74446 81.042451,3.793141 90.045493,3.6915264 Z"
     inkscape:transform-center-y="-9.2071603"
     style="fill:#7ac100;fill-opacity:0.996078;fill-rule:evenodd;stroke-width:3.17413"
     id="path2445" />
</svg>
