<?xml version="1.0" encoding="UTF-8" standalone="no"?>
<svg
   xmlns:dc="http://purl.org/dc/elements/1.1/"
   xmlns:cc="http://creativecommons.org/ns#"
   xmlns:rdf="http://www.w3.org/1999/02/22-rdf-syntax-ns#"
   xmlns:svg="http://www.w3.org/2000/svg"
   xmlns="http://www.w3.org/2000/svg"
   id="svg8"
   version="1.1"
   viewBox="0 0 90 180"
   height="180mm"
   width="90mm">
  <defs
     id="defs2" />
  <metadata
     id="metadata5">
    <rdf:RDF>
      <cc:Work
         rdf:about="">
        <dc:format>image/svg+xml</dc:format>
        <dc:type
           rdf:resource="http://purl.org/dc/dcmitype/StillImage" />
        <dc:title></dc:title>
      </cc:Work>
    </rdf:RDF>
  </metadata>
  <g
     transform="translate(24.741155,124.49967)"
     id="layer1">
    <path
       id="path842"
       d="m -18.025443,26.077973 c -5.3186,-67.732703 63.793871,-78.979223 40.895507,-143.611143 39.343151,24.715098 24.473901,62.880615 27.703911,92.93313 l 7.409098,31.061235 c 13.141268,56.67596 -77.298153,51.850794 -76.008516,19.616778 z"
       style="fill:#eb0000;fill-opacity:0.99607801;stroke:#000000;stroke-width:0.40962401px;stroke-linecap:butt;stroke-linejoin:miter;stroke-opacity:1" />
    <path
       transform="matrix(1.134609,0,0,1.134609,-3.9581345,-16.130547)"
       d="m 36.175781,-62.675781 c -0.311358,3.868579 -0.863551,7.614852 -1.855469,11.113281 -3.275704,11.553197 -9.552982,20.85104 -15.724609,29.539062 C 6.2524485,-4.6473934 -5.7489748,9.6637051 -3.640625,36.513672 a 8.7863228,8.7863228 0 0 1 0.021484,1.039062 c -0.1198394,2.995342 1.5284552,5.443978 6.8085937,8.119141 5.2801385,2.675163 13.4424279,4.195275 21.0468749,3.519531 7.604447,-0.675744 14.378946,-3.458889 18.220703,-7.535156 3.841758,-4.076267 5.977086,-9.405048 3.576172,-19.759766 L 39.517578,-5.4257812 a 8.7863228,8.7863228 0 0 1 -0.189453,-1.0996094 c -1.618691,-15.0605564 0.973018,-29.9709504 -0.283203,-42.8007814 -0.467776,-4.777414 -1.269174,-9.193677 -2.869141,-13.349609 z"
       style="fill:#eb9800;fill-opacity:0.99607801;stroke:none;stroke-width:0.361027px;stroke-linecap:butt;stroke-linejoin:miter;stroke-opacity:1"
       id="path866" />
    <path
       transform="matrix(1.134609,0,0,1.134609,-3.9581345,-16.130547)"
       id="path869"
       style="fill:#ebdb00;fill-opacity:0.99607801;stroke:none;stroke-width:0.361027px;stroke-linecap:butt;stroke-linejoin:miter;stroke-opacity:1"
       d="m 30.285156,-23.855469 c -1.570553,2.359427 -3.158803,4.618175 -4.705078,6.794922 C 13.018521,0.62280971 3.0236159,11.91608 4.9023438,35.841797 a 17.355043,17.355043 0 0 1 0.033203,1.1875 c 0.1622241,0.0072 0.552817,0.203459 2.125,1 C 10.534771,39.7895 17.399588,41.196434 23.478516,40.65625 29.557443,40.116066 34.316212,37.802114 36.222656,35.779297 38.1291,33.756479 39.606029,32.106305 37.6875,23.832031 L 31.183594,-3.4394531 a 17.355043,17.355043 0 0 1 -0.375,-2.171875 C 30.115369,-12.0612 30.136117,-18.088804 30.285156,-23.855469 Z" />
  </g>
</svg>
