<?xml version="1.0" encoding="UTF-8" standalone="no"?>
<svg
   xmlns:dc="http://purl.org/dc/elements/1.1/"
   xmlns:cc="http://creativecommons.org/ns#"
   xmlns:rdf="http://www.w3.org/1999/02/22-rdf-syntax-ns#"
   xmlns:svg="http://www.w3.org/2000/svg"
   xmlns="http://www.w3.org/2000/svg"
   xmlns:sodipodi="http://sodipodi.sourceforge.net/DTD/sodipodi-0.dtd"
   xmlns:inkscape="http://www.inkscape.org/namespaces/inkscape"
   inkscape:version="1.0 (1.0+r73+1)"
   sodipodi:docname="match-burning.svg"
   width="100mm"
   height="330mm"
   viewBox="0 0 100 330"
   version="1.1"
   id="svg8">
  <sodipodi:namedview
     inkscape:current-layer="svg8"
     inkscape:window-maximized="1"
     inkscape:window-y="0"
     inkscape:window-x="0"
     inkscape:cy="224.19362"
     inkscape:cx="263.70654"
     inkscape:zoom="0.32903203"
     showgrid="false"
     id="namedview841"
     inkscape:window-height="1018"
     inkscape:window-width="1680"
     inkscape:pageshadow="2"
     inkscape:pageopacity="0"
     guidetolerance="10"
     gridtolerance="10"
     objecttolerance="10"
     borderopacity="1"
     bordercolor="#666666"
     pagecolor="#ffffff"
     inkscape:document-rotation="0" />
  <defs
     id="defs2" />
  <metadata
     id="metadata5">
    <rdf:RDF>
      <cc:Work
         rdf:about="">
        <dc:format>image/svg+xml</dc:format>
        <dc:type
           rdf:resource="http://purl.org/dc/dcmitype/StillImage" />
        <dc:title></dc:title>
      </cc:Work>
    </rdf:RDF>
  </metadata>
  <g
     id="layer1"
     transform="translate(29.953953,129.50584)">
    <path
       style="fill:#eb0000;fill-opacity:0.996078;stroke:#000000;stroke-width:0.409624px;stroke-linecap:butt;stroke-linejoin:miter;stroke-opacity:1"
       d="m -18.025443,26.077973 c -5.3186,-67.732703 63.793871,-78.979223 40.895507,-143.611143 39.343151,24.715098 24.473901,62.880615 27.703911,92.93313 l 7.409098,31.061235 c 13.141268,56.67596 -77.298153,51.850794 -76.008516,19.616778 z"
       id="path842"
       sodipodi:nodetypes="ccccc" />
    <path
       id="path866"
       style="fill:#eb9800;fill-opacity:0.996078;stroke:none;stroke-width:0.361027px;stroke-linecap:butt;stroke-linejoin:miter;stroke-opacity:1"
       sodipodi:type="inkscape:offset"
       inkscape:radius="-8.7854443"
       inkscape:original="M 23.644531 -89.373047 C 43.826253 -32.408985 -17.086044 -22.495784 -12.398438 37.201172 C -13.535074 65.610974 66.173997 69.864084 54.591797 19.912109 L 48.0625 -7.4648438 C 45.215696 -33.951954 58.320045 -67.590112 23.644531 -89.373047 z "
       d="m 36.175781,-62.675781 c -0.311358,3.868579 -0.863551,7.614852 -1.855469,11.113281 -3.275704,11.553197 -9.552982,20.85104 -15.724609,29.539062 C 6.2524485,-4.6473934 -5.7489748,9.6637051 -3.640625,36.513672 a 8.7863228,8.7863228 0 0 1 0.021484,1.039062 c -0.1198394,2.995342 1.5284552,5.443978 6.8085937,8.119141 5.2801385,2.675163 13.4424279,4.195275 21.0468749,3.519531 7.604447,-0.675744 14.378946,-3.458889 18.220703,-7.535156 3.841758,-4.076267 5.977086,-9.405048 3.576172,-19.759766 L 39.517578,-5.4257812 a 8.7863228,8.7863228 0 0 1 -0.189453,-1.0996094 c -1.618691,-15.0605564 0.973018,-29.9709504 -0.283203,-42.8007814 -0.467776,-4.777414 -1.269174,-9.193677 -2.869141,-13.349609 z"
       transform="matrix(1.134609,0,0,1.134609,-3.9581345,-16.130547)" />
    <rect
       style="fill:#e9cc00;fill-opacity:0.996078;fill-rule:evenodd;stroke:#000000;stroke-width:4.71115;stroke-miterlimit:4;stroke-dasharray:none"
       id="rect1661"
       width="19.926826"
       height="139.88597"
       x="9.6475029"
       y="47.159203"
       ry="0" />
    <path
       d="m 30.285156,-23.855469 c -1.570553,2.359427 -3.158803,4.618175 -4.705078,6.794922 C 13.018521,0.62280971 3.0236159,11.91608 4.9023438,35.841797 a 17.355043,17.355043 0 0 1 0.050781,1.195312 c 0.167641,0.01205 0.548113,0.20217 2.1074219,0.992188 C 10.534771,39.7895 17.399588,41.196434 23.478516,40.65625 29.557443,40.116066 34.316212,37.802114 36.222656,35.779297 38.1291,33.756479 39.606029,32.106305 37.6875,23.832031 L 31.183594,-3.4394531 a 17.355043,17.355043 0 0 1 -0.375,-2.171875 C 30.115369,-12.0612 30.136117,-18.088804 30.285156,-23.855469 Z"
       inkscape:original="M 23.644531 -89.373047 C 43.826253 -32.408985 -17.086044 -22.495784 -12.398438 37.201172 C -13.535074 65.610974 66.173997 69.864084 54.591797 19.912109 L 48.0625 -7.4648438 C 45.215696 -33.951954 58.320045 -67.590112 23.644531 -89.373047 z "
       inkscape:radius="-17.353308"
       sodipodi:type="inkscape:offset"
       style="fill:#ebdb00;fill-opacity:0.996078;stroke:none;stroke-width:0.361027px;stroke-linecap:butt;stroke-linejoin:miter;stroke-opacity:1"
       id="path869"
       transform="matrix(1.134609,0,0,1.134609,-3.9581345,-16.130547)" />
    <rect
       style="fill:#ec0000;fill-opacity:0.996078;fill-rule:evenodd;stroke:#000000;stroke-width:5.08383;stroke-miterlimit:4;stroke-dasharray:none"
       id="rect1659"
       width="36.072041"
       height="51.681831"
       x="1.5748968"
       y="5.1585178"
       ry="15.219679" />
    <rect
       ry="0"
       y="47.159203"
       x="9.6475029"
       height="139.88599"
       width="19.926826"
       id="rect1663"
       style="fill:#e9cc00;fill-opacity:0.996078;fill-rule:evenodd;stroke:none;stroke-width:1.1;stroke-miterlimit:4;stroke-dasharray:none" />
    <rect
       ry="15.219679"
       y="5.1585178"
       x="1.5748968"
       height="51.681831"
       width="36.072041"
       id="rect1665"
       style="fill:#6b0000;fill-opacity:0.996078;fill-rule:evenodd;stroke:none;stroke-width:1.27096;stroke-miterlimit:4;stroke-dasharray:none" />
  </g>
</svg>
